<svg width="265" height="200" viewBox="0 0 265 200" fill="none" xmlns="http://www.w3.org/2000/svg">
<path d="M139.643 185.714C135.357 189 149.786 201.143 114.357 188.357C79 175.571 64.5714 131 57.3571 106.429C50.1429 81.8572 69.5 48.4286 82.2857 38.9286C95.0714 29.4286 118.643 25.5 121.286 25.1429C123.857 24.8572 127.5 23.2143 133.714 17C139.929 10.7857 159.571 4.2143 173.714 7.14288C187.786 10.0714 222.857 43.5 246.071 90.7143C269.357 137.857 237.929 171.643 232.357 171.643C226.786 171.643 194.643 150 191.714 147.357C188.786 144.786 181.571 144.071 176.286 142.143C171.071 140.143 158.929 125.786 158.929 125.786C160.929 161.786 143.857 182.429 139.643 185.714Z" fill="#EAB363"/>
<path d="M125.857 190.286C118.286 190.286 98.6429 176.571 77.7143 147.714C56.7143 118.857 62.6428 78.5715 62.6428 78.5715C58.7143 139.857 130.143 187.357 130.143 187.357C130.143 187.357 133.357 190.286 125.857 190.286Z" fill="#8C5E28"/>
<path d="M176.286 142.143C171.071 140.143 158.929 125.786 158.929 125.786C158.929 125.786 153.357 66.7858 158.929 40.9286C164.5 15 167.429 14.7143 171.357 23.2143C174.929 30.8572 176.071 113.643 188.429 145.571C184.929 144.286 180.071 143.571 176.286 142.143Z" fill="#E2942D"/>
<path d="M120.286 27.1429C120.286 27.1429 109.143 36.2857 106.857 37C104.571 37.6429 78.6428 51.0715 71.5 65.1429C64.2857 79.2143 68.8571 57.6429 76.3571 50.0715C83.9286 42.5715 102.571 29.0715 120.286 27.1429Z" fill="#8C5E28"/>
<path d="M113.214 174.071C69.0714 198 16.7857 198.214 16.7857 198.214C22.6429 183.429 5.71429 158.357 5.71429 158.357C54.3572 163.5 86.3572 145.571 86.3572 145.571C87.5 147.071 113.214 174.071 113.214 174.071Z" fill="#E6E6E6"/>
<path opacity="0.1" d="M113.214 174.071C99.7143 181.357 85.5 186.429 72.2143 190C67.3571 172.643 56.0714 162.786 47 157.5C71.6429 153.786 86.3571 145.571 86.3571 145.571C87.5 147.071 113.214 174.071 113.214 174.071Z" fill="black"/>
<path d="M139.357 33.1429C132.429 46.3572 114 38.3572 118.143 38.1429C122.286 37.9286 134.714 20.8572 143 15.1429C151.357 9.42858 173.714 7.14286 176.214 10.7143C178.786 14.2857 171.643 14.8572 163.357 15.1429C155 15.3572 149.5 57.2857 149.5 57.2857C134.286 49.4286 146.286 19.9286 139.357 33.1429Z" fill="#F4CD9A"/>
</svg>
